<svg xmlns="http://www.w3.org/2000/svg" id="Capa_1" viewBox="0 0 1685.71 333"><defs><style>      .st0 {        fill: #e60606;      }      .st1 {        fill: #ededed;      }    </style></defs><g><path class="st0" d="M6.35,90.48c46.75-21.08,87.83-12.7,88.64-12.7,8.92,2.17-1.35,35.67-7.57,34.59-2.43-.54-5.41-.81-8.11-.81h-6.22c-13.51.81-21.62,3.51-31.35,7.3v133.5c0,5.41-35.4,5.41-35.4,0V90.48Z"></path><path class="st0" d="M199.58,256.42c-42.43-.27-79.19-34.86-79.19-79.18v-21.89c0-43.78,35.41-79.19,79.19-79.19h1.35c43.78,0,79.18,35.41,79.18,79.19v8.65c0,8.92-1.89,18.65-7.3,18.65h-116.75c2.97,21.62,21.89,38.37,43.51,38.37h6.75c17.57,0,31.35-11.08,37.57-21.62,4.86-8.38,35.4,9.19,30.54,17.83-11.08,19.19-35.4,39.19-68.37,39.19h-6.49ZM199.58,111.56c-22.44,0-41.08,17.03-43.51,38.92h88.37c-2.43-21.89-21.08-38.92-43.51-38.92h-1.35Z"></path><path class="st0" d="M400.11,256.42c-42.43,0-79.19-34.59-79.19-79.18v-21.62c0-39.73,31.35-79.18,78.92-79.46h6.75c32.97,0,57.02,20,68.37,39.46,4.86,8.38-25.67,26.22-30.54,17.57-6.22-10.54-20-21.89-37.57-21.62h-6.75c-26.49,0-43.78,22.16-43.78,44.05v21.62c0,24.32,20.27,43.78,43.51,43.78h7.02c17.57.28,31.35-10.8,37.57-21.35,4.86-8.65,35.4,9.19,30.54,17.57-11.35,19.46-35.4,39.46-68.37,39.19h-6.49Z"></path><path class="st1" d="M535.51,108.86h-23.24c-5.4,0-5.4-32.7,0-32.7h23.24V28.06c0-5.14,35.41-5.14,35.41,0v48.1h32.97c5.4,0,5.4,32.7,0,32.7h-32.97v98.91c0,14.32,11.35,13.24,25.67,13.24h7.3c5.4,0,5.4,35.41,0,35.41h-7.3c-39.19,0-61.08-6.22-61.08-46.21v-101.35Z"></path><path class="st1" d="M752.81,249.93c-9.73,4.05-20.27,6.49-31.35,6.49h-6.49c-44.05,0-79.73-35.67-79.73-79.18v-21.89c0-43.78,35.67-79.19,79.73-79.19,33.24,0,49.45,4.86,73.5,14.05v162.15c0,5.41-35.67,5.41-35.67,0v-2.43ZM752.81,118.86c-10-3.79-17.84-6.49-31.35-7.3h-6.49c-24.33,0-44.05,19.73-44.05,43.78v21.89c0,24.05,19.73,43.78,44.05,43.78h6.49c12.16,0,23.51-5.13,31.35-13.24v-88.91Z"></path><path class="st1" d="M837.39,90.21c24.05-9.19,39.99-14.05,72.97-14.05,43.78,0,79.19,35.41,79.19,79.19v97.02c0,5.41-35.41,5.41-35.41,0v-97.02c0-24.06-19.46-43.78-43.78-43.78h-6.21c-13.51.81-21.35,3.51-31.36,7.3v133.5c0,5.41-35.4,5.41-35.4,0V90.21Z"></path><path class="st1" d="M1095.48,330.46c-2.16,0-4.33-.27-6.75-.54-4.33-.54-9.19-1.62-14.05-3.51-4.86-2.17-9.46-5.14-13.51-9.19-4.33-4.06-7.57-9.19-10.54-14.87-4.32-8.65,27.57-24.32,31.89-15.67,1.35,2.7,10.81,13.78,17.3,13.78h21.35c14.05,0,25.95-17.03,25.95-31.08v-19.46c-9.46,4.33-20.27,6.49-31.35,6.49h-6.22c-43.78,0-79.18-35.41-79.18-79.18v-21.89c0-43.51,35.4-79.19,79.18-79.19,32.97,0,49.18,4.86,72.97,14.32v178.91c0,33.78-27.29,61.08-61.07,61.08h-25.95ZM1147.1,119.13c-10-4.06-17.84-6.76-31.35-7.57h-6.22c-24.05,0-43.78,19.73-43.78,43.78v21.89c0,24.32,19.73,43.78,43.78,43.78h6.22c12.43,0,23.51-5.13,31.35-13.24v-88.64Z"></path><path class="st1" d="M1231.43,79.13c0-4.05,35.4-4.05,35.4,0v98.91c0,24.33,19.46,43.78,43.78,43.78h6.22c12.16,0,23.24-5.13,31.35-13.24V79.13c.27-4.05,35.4-4.05,35.4,0v174.04c0,4.33-35.13,4.33-35.13,0v-2.43c-10,4.33-20.54,6.49-31.62,6.49h-6.22c-43.78,0-79.18-35.41-79.18-79.19v-98.91Z"></path><path class="st1" d="M1432.5,5.63c0-4.33,35.4-4.33,35.4,0v186.74c0,17.84,1.89,22.16,3.79,24.59,2.7,3.51,12.7,3.78,14.86,3.78,9.46,0,10.27,35.67-.54,35.67-13.25-.27-32.16,1.35-42.97-7.84-7.29-7.84-10.54-17.83-10.54-31.08V5.63Z"></path><path class="st1" d="M1521.14,155.34c0-43.78,35.4-79.19,79.18-79.19h6.22c43.78,0,79.18,35.41,79.18,79.19v21.89c0,43.78-35.4,79.18-79.18,79.18h-6.22c-43.78,0-79.18-35.41-79.18-79.18v-21.89ZM1650.31,155.34c0-24.06-19.46-43.78-43.78-43.78h-6.22c-24.33,0-43.78,19.73-43.78,43.78v21.89c0,24.05,19.46,43.78,43.78,43.78h6.22c24.32,0,43.78-19.73,43.78-43.78v-21.89Z"></path></g><path class="st0" d="M737.19,60.51c-1.67,0-3.35-.2-5.02-.6-5.53-1.33-10.21-4.74-13.19-9.59-2.97-4.85-3.87-10.56-2.54-16.1,1.33-5.53,4.74-10.21,9.59-13.18,4.86-2.97,10.57-3.87,16.1-2.54,5.53,1.33,10.21,4.74,13.18,9.59,2.97,4.85,3.87,10.56,2.54,16.1-1.33,5.53-4.74,10.21-9.59,13.18-3.39,2.07-7.21,3.14-11.08,3.14ZM737.13,23.89c-2.78,0-5.52.77-7.95,2.26-3.49,2.13-5.94,5.5-6.89,9.47s-.31,8.08,1.83,11.57c2.13,3.48,5.5,5.94,9.47,6.89,3.97.95,8.08.3,11.57-1.83,3.49-2.13,5.94-5.5,6.89-9.47s.3-8.08-1.83-11.56h0c-2.13-3.49-5.5-5.94-9.47-6.89-1.19-.29-2.41-.43-3.61-.43Z"></path><rect class="st0" x="690.82" y="36.2" width="92.67" height="5.99" transform="translate(87.68 390.08) rotate(-31.42)"></rect></svg>